<svg width="211" height="199" viewBox="0 0 211 199" fill="none" xmlns="http://www.w3.org/2000/svg">
<path d="M98.3246 4.14887L0.826199 158.511C-0.394056 159.976 -0.150005 164.124 0.826199 166.565C1.60716 168.517 4.08021 169.656 5.21912 169.982H202.656C204.731 169.982 206.073 169.493 208.758 166.809C210.905 164.661 209.978 160.382 209.246 158.511L112.968 5.61318C112.114 3.74212 109.307 0 104.914 0C101.79 0 99.2195 2.76591 98.3246 4.14887Z" fill="#FFA300"/>
<path d="M105.675 21.2324L188.948 154.484H22.401L105.675 21.2324Z" fill="#DE3806"/>
<path d="M101.403 113.362L81.0243 102.745L70.1641 138.987V143.502C70.5708 144.315 71.848 145.942 73.7028 145.942C75.5576 145.942 76.7534 144.315 77.1195 143.502L88.7119 113.362L98.474 123.124C99.0434 127.069 100.426 136.79 101.403 144.112C104.331 147.041 106.609 145.332 107.382 144.112C107.26 137.563 106.967 124.051 106.772 122.391C106.576 120.732 103.111 115.68 101.403 113.362Z" fill="#FFA300"/>
<circle cx="113.606" cy="65.0398" r="8.66381" fill="#FFA300"/>
<path fill-rule="evenodd" clip-rule="evenodd" d="M73.1589 88.0924C71.7624 88.2757 69.5219 88.5696 70.5458 91.6411C73.9624 93.5935 112.644 113.118 131.558 122.636C131.274 124.019 129.191 126.784 123.139 126.784C117.477 138.889 114.678 144.682 113.987 146.065H162.187C157.55 133.659 147.056 108.847 142.175 108.847C140.344 108.847 135.016 115.029 134.487 118.121L121.064 111.531C119.275 102.786 115.353 84.4904 113.987 81.269C108.618 77.1689 104.591 74.5169 103.249 73.7034H87.1412L73.8405 87.9804C73.6637 88.0262 73.4268 88.0573 73.1589 88.0924ZM79.4376 91.5192L85.0508 94.3258L92.9825 82.7334H88.3455L79.4376 91.5192ZM101.036 102.013L113.361 108.359L109.334 92.1294L101.036 102.013Z" fill="#FFA300"/>
</svg>
