<svg width="1337" height="1406" viewBox="0 0 1337 1406" fill="none" xmlns="http://www.w3.org/2000/svg">
<path fill-rule="evenodd" clip-rule="evenodd" d="M506.184 1266.54C368.135 1303.53 200.396 894.028 198.819 751.141C197.367 619.614 305.584 523.679 391.648 424.225C469.241 334.561 544.178 221.726 662.594 215.213C777.162 208.911 947.028 191.603 1039.86 259.064C1135.99 328.92 1202.6 492.11 1207 610.837C1211.45 730.881 1042.06 766.198 958.346 852.339C893.719 918.843 888.44 1023.26 779.158 1051.1C635.645 1087.67 713.375 1211.03 506.184 1266.54Z" fill="#FFA300"/>
<path fill-rule="evenodd" clip-rule="evenodd" d="M480.429 1221.94C384.801 1247.56 268.606 963.889 267.514 864.909C266.508 773.798 341.472 707.343 401.089 638.45C454.839 576.338 506.749 498.176 588.777 493.664C668.14 489.299 785.809 477.309 850.114 524.04C916.702 572.43 962.845 685.474 965.894 767.718C968.978 850.875 851.635 875.339 793.649 935.01C748.881 981.079 745.224 1053.41 669.523 1072.7C570.109 1098.03 623.954 1183.48 480.429 1221.94Z" fill="#DE3806"/>
</svg>
