<svg width="463" height="329" viewBox="0 0 463 329" fill="none" xmlns="http://www.w3.org/2000/svg">
<path d="M234.687 48.3159L236.149 47.5347L237.221 48.9448L235.77 49.9998L234.687 48.3159Z" fill="#C4C4C4"/>
<path fill-rule="evenodd" clip-rule="evenodd" d="M159.498 76.6334C167.802 84.9437 170.245 111.562 170.835 124.655C168.797 136.229 164.908 146.815 156.5 154.755C116.787 193.67 108.71 167.052 104.622 153.582C101.607 143.649 100.763 140.866 91.0002 176.792C78.3389 250.069 188.303 255.341 226.839 194.302C228.846 212.904 237.422 230.404 247.014 239.4C250.783 245.376 272.074 255.365 294 251.417C307.5 248.985 329 224.872 332 209.847C333.715 207.013 329.5 207.296 322.995 207.733C311.761 208.488 293.693 209.703 287.531 196.11L287.525 195.694C287.342 183.734 287.18 173.11 295.5 167.276C314.702 151.168 327.734 159.708 334.333 164.032C340.409 168.014 341.033 168.423 336 142.735C313.006 101.098 277.497 106.471 250.917 134.946C260.04 92.6688 249.376 57.8105 234.404 43.9525C225.446 31.9494 190.028 9.38355 161.5 11.5161C141.341 11.5161 110.5 40.5646 98.4999 57.593C93.7314 64.3597 104.439 62.3498 118.469 59.0733L118.485 59.0851L118.498 59.0955C129.5 57.593 145.498 64.6047 159.498 76.6334Z" fill="#FF6002"/>
<ellipse cx="308" cy="64.6047" rx="28" ry="27.0452" fill="#FF6002"/>
<path d="M418 184.805C418 188.678 415.09 191.817 411.5 191.817C407.91 191.817 405 188.678 405 184.805C405 180.933 407.91 177.793 411.5 177.793C415.09 177.793 418 180.933 418 184.805ZM406.299 184.805C406.299 187.904 408.627 190.416 411.5 190.416C414.373 190.416 416.701 187.904 416.701 184.805C416.701 181.706 414.373 179.194 411.5 179.194C408.627 179.194 406.299 181.706 406.299 184.805Z" fill="black"/>
<path d="M352 175.821C362.912 175.821 359.794 174.784 368.501 184.805H405" stroke="#C71D66" stroke-width="2"/>
<path d="M352 202.835H403.118L407 209.847H418" stroke="#C71D66" stroke-width="2"/>
<path d="M353 224.872C370.672 236.399 348.34 227.165 438.148 232.197L451 237.894" stroke="#C71D66" stroke-width="2"/>
<path d="M352 153.779C382.319 153.779 375.138 152.818 376.734 162.768H418.114L427 153.779" stroke="#C71D66" stroke-width="2"/>
<path d="M416 184.805C416 187.571 413.985 189.814 411.5 189.814C409.015 189.814 407 187.571 407 184.805C407 182.039 409.015 179.797 411.5 179.797C413.985 179.797 416 182.039 416 184.805ZM407.899 184.805C407.899 187.019 409.511 188.813 411.5 188.813C413.489 188.813 415.101 187.019 415.101 184.805C415.101 182.592 413.489 180.798 411.5 180.798C409.511 180.798 407.899 182.592 407.899 184.805Z" fill="#C4C4C4"/>
<path d="M463 241.4C463 245.272 460.09 248.412 456.5 248.412C452.91 248.412 450 245.272 450 241.4C450 237.527 452.91 234.388 456.5 234.388C460.09 234.388 463 237.527 463 241.4ZM451.299 241.4C451.299 244.499 453.627 247.011 456.5 247.011C459.373 247.011 461.701 244.499 461.701 241.4C461.701 238.301 459.373 235.789 456.5 235.789C453.627 235.789 451.299 238.301 451.299 241.4Z" fill="black"/>
<path d="M461 241.399C461 244.166 458.985 246.408 456.5 246.408C454.015 246.408 452 244.166 452 241.399C452 238.633 454.015 236.391 456.5 236.391C458.985 236.391 461 238.633 461 241.399ZM452.899 241.399C452.899 243.613 454.511 245.407 456.5 245.407C458.489 245.407 460.101 243.613 460.101 241.399C460.101 239.186 458.489 237.392 456.5 237.392C454.511 237.392 452.899 239.186 452.899 241.399Z" fill="#C4C4C4"/>
<path d="M430 210.348C430 214.22 427.09 217.359 423.5 217.359C419.91 217.359 417 214.22 417 210.348C417 206.475 419.91 203.336 423.5 203.336C427.09 203.336 430 206.475 430 210.348ZM418.299 210.348C418.299 213.446 420.627 215.958 423.5 215.958C426.373 215.958 428.701 213.446 428.701 210.348C428.701 207.249 426.373 204.737 423.5 204.737C420.627 204.737 418.299 207.249 418.299 210.348Z" fill="black"/>
<path d="M428 210.348C428 213.114 425.985 215.356 423.5 215.356C421.015 215.356 419 213.114 419 210.348C419 207.582 421.015 205.339 423.5 205.339C425.985 205.339 428 207.582 428 210.348ZM419.899 210.348C419.899 212.561 421.511 214.355 423.5 214.355C425.489 214.355 427.101 212.561 427.101 210.348C427.101 208.134 425.489 206.34 423.5 206.34C421.511 206.34 419.899 208.134 419.899 210.348Z" fill="#C4C4C4"/>
<path d="M437 148.244C437 152.117 434.09 155.256 430.5 155.256C426.91 155.256 424 152.117 424 148.244C424 144.372 426.91 141.232 430.5 141.232C434.09 141.232 437 144.372 437 148.244ZM425.299 148.244C425.299 151.343 427.627 153.855 430.5 153.855C433.373 153.855 435.701 151.343 435.701 148.244C435.701 145.145 433.373 142.633 430.5 142.633C427.627 142.633 425.299 145.145 425.299 148.244Z" fill="black"/>
<path d="M435 148.244C435 151.01 432.985 153.253 430.5 153.253C428.015 153.253 426 151.01 426 148.244C426 145.478 428.015 143.236 430.5 143.236C432.985 143.236 435 145.478 435 148.244ZM426.899 148.244C426.899 150.458 428.511 152.252 430.5 152.252C432.489 152.252 434.101 150.458 434.101 148.244C434.101 146.031 432.489 144.237 430.5 144.237C428.511 144.237 426.899 146.031 426.899 148.244Z" fill="#C4C4C4"/>
<path d="M85 91.6499C69.6667 96.3244 32.5 109.981 6.5 127.209L52.5 139.73M85 91.6499L52.5 139.73M85 91.6499L92.5 139.73M52.5 139.73L46 106.34" stroke="#4139A9" stroke-width="2"/>
<ellipse cx="6.5" cy="127.71" rx="6.5" ry="6.01004" fill="#6763B8"/>
<ellipse cx="44" cy="104.171" rx="7" ry="6.51087" fill="#6763B8"/>
<ellipse cx="54.5" cy="143.736" rx="10.5" ry="10.0167" fill="#6763B8"/>
<ellipse cx="90.5" cy="89.6462" rx="7.5" ry="8.01338" fill="#6763B8"/>
<path d="M294 11.0151C299 7.00836 300.782 5.74551 306 4.00336C312 2.00002 314 2 318 2C324.489 2 326.358 2.37479 332.5 4.00336C340.068 6.0101 349.76 11.2216 356 17.0251C363 23.536 365.834 26.8057 368.228 36.69C370.621 46.5744 368.228 52.5844 368.228 52.5844" stroke="#FFA300" stroke-width="3" stroke-linecap="round"/>
<path d="M296 25.4203C299.652 22.8021 300.954 21.9769 304.766 20.8384C309.149 19.5293 310.61 19.5293 313.532 19.5293C318.272 19.5293 319.637 19.7742 324.124 20.8384C329.653 22.1498 336.733 25.5553 341.291 29.3477C346.404 33.6023 348.474 35.7389 350.223 42.198C351.971 48.6571 350.223 52.5845 350.223 52.5845" stroke="#FFA300" stroke-width="3" stroke-linecap="round"/>
<path d="M175.346 138.227C175.346 123.703 186.99 89.0972 162 63.6029C132.52 40.7181 99.3528 65.5379 105.5 57.5929C108.813 53.3104 147.374 30.6694 175.346 53.6765C205.398 78.3944 181.493 130.282 175.346 138.227Z" fill="#DE3806"/>
<path d="M235.395 199.235C236.791 207.818 260 234.715 268 237.393C289.374 244.546 304.868 228.849 301.999 234.137C300.453 236.988 279.842 254.088 261.101 243.19C240.967 231.483 232.526 204.523 235.395 199.235Z" fill="#DE3806"/>
<path d="M234.687 48.3159L236.149 47.5347L237.221 48.9448L235.77 49.9998L234.687 48.3159Z" fill="#C4C4C4"/>
<path fill-rule="evenodd" clip-rule="evenodd" d="M159.498 76.6334C167.802 84.9437 170.245 111.562 170.835 124.655C168.797 136.229 164.908 146.815 156.5 154.755C116.787 193.67 108.71 167.052 104.622 153.582C101.607 143.649 100.763 140.866 91.0002 176.792C78.3389 250.069 188.303 255.341 226.839 194.302C228.846 212.904 237.422 230.404 247.014 239.4C250.783 245.376 272.074 255.365 294 251.417C307.5 248.985 329 224.872 332 209.847C333.715 207.013 329.5 207.296 322.995 207.733C311.761 208.488 293.693 209.703 287.531 196.11L287.525 195.694C287.342 183.734 287.18 173.11 295.5 167.276C314.702 151.168 327.734 159.708 334.333 164.032C340.409 168.014 341.033 168.423 336 142.735C313.006 101.098 277.497 106.471 250.917 134.946C260.04 92.6688 249.376 57.8105 234.404 43.9525C225.446 31.9494 190.028 9.38355 161.5 11.5161C141.341 11.5161 110.5 40.5646 98.4999 57.593C93.7314 64.3597 104.439 62.3498 118.469 59.0733L118.485 59.0851L118.498 59.0955C129.5 57.593 145.498 64.6047 159.498 76.6334Z" fill="#FF6002"/>
<ellipse cx="308" cy="64.6047" rx="28" ry="27.0452" fill="#FF6002"/>
<path d="M352 175.821C362.912 175.821 359.794 174.784 368.501 184.805H405" stroke="#C71D66" stroke-width="2"/>
<path d="M352 202.835H403.118L407 209.847H418" stroke="#C71D66" stroke-width="2"/>
<path d="M353 224.872C370.672 236.399 348.34 227.165 438.148 232.197L451 237.894" stroke="#C71D66" stroke-width="2"/>
<path d="M352 153.779C382.319 153.779 375.138 152.818 376.734 162.768H418.114L427 153.779" stroke="#C71D66" stroke-width="2"/>
<path d="M437 148.244C437 152.117 434.09 155.256 430.5 155.256C426.91 155.256 424 152.117 424 148.244C424 144.372 426.91 141.232 430.5 141.232C434.09 141.232 437 144.372 437 148.244ZM425.299 148.244C425.299 151.343 427.627 153.855 430.5 153.855C433.373 153.855 435.701 151.343 435.701 148.244C435.701 145.145 433.373 142.633 430.5 142.633C427.627 142.633 425.299 145.145 425.299 148.244Z" fill="black"/>
<path d="M435 148.244C435 151.01 432.985 153.253 430.5 153.253C428.015 153.253 426 151.01 426 148.244C426 145.478 428.015 143.236 430.5 143.236C432.985 143.236 435 145.478 435 148.244ZM426.899 148.244C426.899 150.458 428.511 152.252 430.5 152.252C432.489 152.252 434.101 150.458 434.101 148.244C434.101 146.031 432.489 144.237 430.5 144.237C428.511 144.237 426.899 146.031 426.899 148.244Z" fill="#C4C4C4"/>
<path d="M85 91.6499C69.6667 96.3244 32.5 109.981 6.5 127.209L52.5 139.73M85 91.6499L52.5 139.73M85 91.6499L92.5 139.73M52.5 139.73L46 106.34" stroke="#4139A9" stroke-width="2"/>
<ellipse cx="6.5" cy="127.71" rx="6.5" ry="6.01004" fill="#6763B8"/>
<ellipse cx="44" cy="104.171" rx="7" ry="6.51087" fill="#6763B8"/>
<ellipse cx="54.5" cy="143.736" rx="10.5" ry="10.0167" fill="#6763B8"/>
<ellipse cx="90.5" cy="89.6462" rx="7.5" ry="8.01338" fill="#6763B8"/>
<path d="M294 11.0151C299 7.00836 300.782 5.74551 306 4.00336C312 2.00002 314 2 318 2C324.489 2 326.358 2.37479 332.5 4.00336C340.068 6.0101 349.76 11.2216 356 17.0251C363 23.536 365.834 26.8057 368.228 36.69C370.621 46.5744 368.228 52.5844 368.228 52.5844" stroke="#FFA300" stroke-width="3" stroke-linecap="round"/>
<path d="M296 25.4203C299.652 22.8021 300.954 21.9769 304.766 20.8384C309.149 19.5293 310.61 19.5293 313.532 19.5293C318.272 19.5293 319.637 19.7742 324.124 20.8384C329.653 22.1498 336.733 25.5553 341.291 29.3477C346.404 33.6023 348.474 35.7389 350.223 42.198C351.971 48.6571 350.223 52.5845 350.223 52.5845" stroke="#FFA300" stroke-width="3" stroke-linecap="round"/>
<path d="M175.346 138.227C175.346 123.703 186.99 89.0972 162 63.6029C132.52 40.7181 99.3528 65.5379 105.5 57.5929C108.813 53.3104 147.374 30.6694 175.346 53.6765C205.398 78.3944 181.493 130.282 175.346 138.227Z" fill="#DE3806"/>
<path d="M235.395 199.235C236.791 207.818 260 234.715 268 237.393C289.374 244.546 304.868 228.849 301.999 234.137C300.453 236.988 279.842 254.088 261.101 243.19C240.967 231.483 232.526 204.523 235.395 199.235Z" fill="#DE3806"/>
<rect width="5.00833" height="13" transform="matrix(-0.0164909 -0.999864 0.999863 -0.0165459 244.064 311.789)" fill="#FF6002"/>
<path fill-rule="evenodd" clip-rule="evenodd" d="M297.982 302.56H292.982V306.715L288.982 306.781L289.065 311.789L292.982 311.724V315.581H297.982V311.641L302.063 311.574L301.981 306.566L297.982 306.632V302.56Z" fill="#FF6002"/>
<path fill-rule="evenodd" clip-rule="evenodd" d="M94.4578 297.616C97.5349 297.616 102.191 298.858 105.154 301.587C105.446 301.862 105.836 302.014 106.253 301.99C106.66 301.973 107.042 301.801 107.309 301.502L110.049 298.514C110.589 297.917 110.537 297.01 109.926 296.479C105.109 292.311 98.5831 290.831 94.4578 290.831C87.1852 290.831 79.3645 294.346 79.3645 302.075C79.3645 309.263 87.0268 311.378 93.8369 313.261C97.4744 314.226 102.962 315.699 102.962 317.831C102.962 321.305 97.7309 322.219 94.963 322.219C92.1426 322.219 87.6829 321.203 84.3746 318.353C83.7889 317.848 82.894 317.865 82.3259 318.396L79.4524 321.099C79.1608 321.373 79 321.749 79 322.144C79 322.537 79.1685 322.913 79.4626 323.18C83.7814 327.202 90.3601 328.997 94.963 328.997C102.467 328.997 110.057 325.164 110.057 317.831C110.057 310.478 102.334 308.373 95.5036 306.507L95.3528 306.466C91.1496 305.345 86.3884 304.069 86.3884 302.075C86.3884 298.558 91.4614 297.616 94.4578 297.616V297.616Z" fill="#FF6002"/>
<path fill-rule="evenodd" clip-rule="evenodd" d="M158.981 317.271C158.687 316.997 158.28 316.834 157.88 316.868C157.473 316.895 157.083 317.064 156.817 317.365C154.139 320.317 150.53 322.081 147.151 322.081C140.959 322.081 135.914 317.372 135.914 311.579V308.181C135.914 302.431 140.959 297.759 147.151 297.759C150.53 297.759 154.139 299.513 156.817 302.466C157.083 302.764 157.465 302.943 157.88 302.963C158.28 302.987 158.687 302.834 158.981 302.56L162.005 299.787C162.581 299.246 162.626 298.366 162.093 297.784C158.076 293.386 152.498 290.766 147.151 290.766C137.005 290.766 128.739 298.579 128.739 308.181V311.579C128.739 321.04 136.748 328.759 146.676 329H147.523C152.722 328.881 158.144 326.309 162.086 322.064C162.626 321.482 162.591 320.592 162.005 320.051L158.981 317.271Z" fill="#FF6002"/>
<path fill-rule="evenodd" clip-rule="evenodd" d="M196.391 291.319C193.447 291.319 190.451 292.202 187.816 293.801V277.909C187.816 277.106 187.15 276.463 186.318 276.463H182.14C181.315 276.463 180.642 277.106 180.642 277.909V327.554C180.642 328.35 181.315 329 182.14 329H186.318C187.142 329 187.816 328.359 187.816 327.554L187.887 306.1C187.887 301.77 191.7 298.242 196.391 298.242C201.12 298.242 204.968 301.77 204.968 306.1V327.554C204.968 328.35 205.642 329 206.467 329H210.564C211.396 329 212.07 328.35 212.07 327.554V306.1C212.07 298.089 204.888 291.319 196.391 291.319V291.319Z" fill="#FF6002"/>
<path fill-rule="evenodd" clip-rule="evenodd" d="M352.902 325.769L351.608 322.088C351.474 321.722 351.2 321.414 350.826 321.252C350.464 321.079 350.036 321.062 349.657 321.201C348.025 321.79 346.64 322.081 345.436 322.081C342.251 322.081 340.894 320.703 340.894 317.487V277.906C340.894 277.108 340.22 276.458 339.395 276.458H335.22C334.392 276.458 333.719 277.108 333.719 277.906V317.487C333.719 324.66 337.829 328.84 345.004 329H345.687C347.397 328.946 349.406 328.355 351.713 327.678L351.917 327.617C352.309 327.508 352.628 327.241 352.814 326.899C353 326.547 353.035 326.137 352.902 325.769V325.769Z" fill="#FF6002"/>
<path fill-rule="evenodd" clip-rule="evenodd" d="M250.047 322.006C253.418 322.006 256.583 320.74 258.961 318.447L267.873 309.845L258.961 301.235C256.583 298.943 253.418 297.677 250.047 297.677C243.094 297.677 237.445 303.135 237.445 309.845C237.445 316.548 243.094 322.006 250.047 322.006ZM250.047 290.804C255.316 290.804 260.273 292.781 263.996 296.376L272.911 304.983L281.832 296.384C285.555 292.781 290.505 290.804 295.782 290.804C296.652 290.804 297.361 291.488 297.361 292.328V296.153C297.361 296.993 296.652 297.677 295.782 297.677C292.411 297.677 289.246 298.943 286.86 301.245L277.956 309.845L286.86 318.447C289.246 320.74 292.411 322.006 295.782 322.006C302.735 322.006 308.384 316.548 308.384 309.845C308.384 308.998 309.093 308.314 309.97 308.314H313.927C314.804 308.314 315.506 308.998 315.506 309.845C315.506 320.347 306.654 328.888 295.782 328.888C290.505 328.888 285.555 326.901 281.832 323.306L272.911 314.706L263.996 323.306C260.273 326.901 255.324 328.888 250.047 328.888C239.167 328.888 230.315 320.347 230.315 309.845C230.315 299.346 239.167 290.804 250.047 290.804V290.804Z" fill="#FF6002"/>
</svg>
